<svg width="48" height="33" viewBox="0 0 48 33" fill="none" xmlns="http://www.w3.org/2000/svg">
<path d="M31.7528 32.3265H0V0H31.7528V11.061H30.2809V1.49855H1.47195V30.8279H30.2809V21.1942H31.7528V32.3265Z" fill="#8C8C8C"/>
<path d="M6.48749 12.8433H7.96219V15.7054L10.073 12.8433H11.8428L9.41864 15.8743L12.0363 19.4122H10.1653L7.96219 16.2873V19.4122H6.48749V12.8433Z" fill="#8C8C8C"/>
<path d="M15.883 18.0576C17.0725 18.0576 17.6895 17.2018 17.6895 16.1274C17.6895 14.9619 16.8936 14.1972 15.883 14.1972C14.8455 14.1972 14.0764 14.9619 14.0764 16.1274C14.0764 17.22 14.8814 18.0576 15.883 18.0576ZM15.883 12.8315C17.7878 12.8315 19.2098 14.097 19.2098 16.1274C19.2098 18.0576 17.7878 19.4233 15.883 19.4233C13.9782 19.4233 12.5561 18.1577 12.5561 16.1274C12.5561 14.2792 13.8886 12.8315 15.883 12.8315Z" fill="#8C8C8C"/>
<path d="M25.4129 19.4118L22.3528 15.4704V19.4118H20.9702V12.8447H22.1499L25.2102 16.8031L25.2082 12.845H26.5908L26.5928 19.4118H25.4129Z" fill="#8C8C8C"/>
<path d="M28.3679 12.8433H33.7139V14.2509H31.7783V19.4122H30.3034V14.2509H28.3679V12.8433Z" fill="#8C8C8C"/>
<path d="M40.8693 16.5863C40.8693 18.5946 39.6158 19.411 38.2332 19.411C36.5741 19.411 35.4218 18.4443 35.4218 16.5207V12.8457H36.8966V16.2016C36.8966 17.2245 37.2008 18.0034 38.2332 18.0034C39.1273 18.0034 39.3946 17.3372 39.3946 16.286V12.8457H40.8693V16.5863Z" fill="#8C8C8C"/>
<path d="M44.1164 14.2722V15.7266H44.6509C45.2132 15.7266 45.6556 15.5203 45.6556 14.9666C45.6556 14.6006 45.4723 14.2707 44.7625 14.2707C44.5413 14.2707 44.4206 14.2628 44.1164 14.2722ZM42.6415 19.411V12.8457C43.001 12.8457 44.6509 12.8457 44.8353 12.8457C46.5958 12.8457 47.2226 13.7374 47.2226 14.9478C47.2226 16.1678 46.4853 16.6651 46.1349 16.8434L48 19.411H46.2117L44.6601 17.1343H44.1164V19.411H42.6415Z" fill="#8C8C8C"/>
</svg>
