<svg width="200" height="53" viewBox="0 0 200 53" fill="none" xmlns="http://www.w3.org/2000/svg">
<g clip-path="url(#clip0)">
<path fill-rule="evenodd" clip-rule="evenodd" d="M22.3532 0H23.9373V9.62763L31.7205 17.5191L39.4966 9.62763V0H41.0913V35.544L40.9751 35.7018L40.271 36.3726L32.8434 43.9413L32.5337 44.3V52.9376H30.9496V44.3036L30.5975 43.9449L23.177 36.3726L22.4729 35.7018L22.3497 35.544L22.3532 0ZM40.4365 43.3458H42.1966V41.5523H40.4365V43.3458ZM43.6293 41.5523V43.3458H45.3894V41.5523H43.6293ZM40.4365 46.5742H42.1966V44.7807H40.4365V46.5742ZM43.6293 44.7807V46.5742H45.3894V44.7807H43.6293ZM18.0833 43.3136H19.8433V41.52H18.0833V43.3136ZM21.2761 41.52V43.3136H23.0643V41.52H21.2761ZM18.0833 46.5419H19.8433V44.7484H18.0833V46.5419ZM21.2761 44.7484V46.5419H23.0643V44.7484H21.2761ZM17.1469 34.8697L10.1874 42.0007V35.8704L10.4972 35.5548L17.1469 28.7681V34.8697ZM8.59632 42.0007L1.59465 34.8697V28.7717L8.2443 35.544L8.59632 35.8597V42.0007ZM0.816686 36.3726L8.2443 43.9413L8.59632 44.3V52.9376H10.2086V44.3036L10.5219 43.9449L17.9495 36.369L18.6535 35.6983L18.7697 35.5404V8.3614H17.1469V18.0213L9.37076 25.9523L1.59465 18.0213V8.3614H0V35.544L0.116166 35.7018L0.816686 36.3726ZM17.1469 26.4688L10.1874 33.5604V27.4624L10.4972 27.1037L17.1469 20.3278V26.4688ZM8.59632 33.5604L1.59465 26.4688V20.3278L8.2443 27.1037L8.59632 27.4624V33.5604ZM46.3187 34.8697L53.2782 42.0007V35.8704L52.9614 35.5548L46.3117 28.7681L46.3187 34.8697ZM54.9151 42.0007L61.8745 34.8697V28.7717L55.2178 35.544L54.9151 35.8704V42.0007ZM62.6384 36.3726L55.2108 43.9413L54.9045 44.3V52.9376H53.2747V44.3036L52.9614 43.9449L45.5337 36.3762L44.8297 35.7018L44.7065 35.5476V8.3614H46.3011V18.0213L54.0773 25.9451L61.8569 18.0213V8.3614H63.448V35.544L63.3354 35.7018L62.6384 36.3726ZM46.3082 26.4688L53.2676 33.5604V27.4624L52.9578 27.1037L46.3117 20.3278L46.3082 26.4688ZM54.9151 33.5604L61.878 26.4688V20.3278L55.2178 27.1037L54.9045 27.4624L54.9151 33.5604ZM30.9496 0H32.5442V5.19045C33.4374 5.39073 34.2266 5.92012 34.7602 6.67702C35.2938 7.43392 35.5343 8.36499 35.4354 9.29149C35.3366 10.218 34.9054 11.0747 34.2246 11.697C33.5439 12.3194 32.6615 12.6636 31.7469 12.6636C30.8323 12.6636 29.9499 12.3194 29.2692 11.697C28.5884 11.0747 28.1572 10.218 28.0583 9.29149C27.9595 8.36499 28.2 7.43392 28.7336 6.67702C29.2672 5.92012 30.0563 5.39073 30.9496 5.19045V0ZM31.7275 6.73647C31.3167 6.74286 30.917 6.87305 30.5787 7.11064C30.2404 7.34822 29.9787 7.68255 29.8266 8.07148C29.6745 8.4604 29.6389 8.8865 29.7241 9.29605C29.8094 9.7056 30.0117 10.0803 30.3057 10.3728C30.5996 10.6653 30.9719 10.8626 31.3758 10.9398C31.7796 11.017 32.1968 10.9706 32.5748 10.8065C32.9527 10.6424 33.2746 10.3679 33.4997 10.0177C33.7248 9.66743 33.8431 9.25712 33.8396 8.83848C33.8378 8.56102 33.7824 8.28665 33.6764 8.03104C33.5705 7.77542 33.4163 7.54357 33.2224 7.34871C33.0286 7.15385 32.799 6.99981 32.5467 6.89538C32.2944 6.79094 32.0245 6.73816 31.7522 6.74006L31.7275 6.73647ZM39.5036 34.8697V28.7717L32.8575 35.544L32.5477 35.8597V42.0007L39.5036 34.8697ZM30.9496 42.0007V35.8704L30.5975 35.5548L23.9373 28.7681V34.8661L30.9496 42.0007ZM39.5036 26.4688V20.3278L32.8575 27.1037L32.5442 27.4624V33.5604L39.5036 26.4688ZM30.9496 33.5604V27.4624L30.5975 27.1037L23.9373 20.3278V26.4688L30.9496 33.5604ZM39.5072 18.0213V11.9233L32.8575 18.6526L32.5477 19.0113V25.1093L39.5072 18.0213ZM30.9496 25.1093V19.0113L30.5975 18.6526L23.9373 11.9269V18.0249L30.9496 25.1093Z" fill="#00703B"/>
<path d="M81.6686 27.5977C77.4748 27.3586 75.3791 25.4455 75.3815 21.8584C75.3838 18.2714 77.4795 16.3451 81.6686 16.0797V15.0036H83.397V16.0797C87.5884 16.2949 89.6852 18.2236 89.6876 21.8656C89.6899 25.5076 87.593 27.4207 83.397 27.6049V28.681H81.6686V27.5977ZM81.6686 26.1629V17.5253C78.6905 17.7644 77.2014 19.1897 77.2014 21.801C77.1991 24.465 78.6881 25.9166 81.6686 26.1557V26.1629ZM83.397 17.5217V26.1629C86.3751 25.9477 87.8653 24.4937 87.8676 21.801C87.8653 19.1538 86.3739 17.725 83.3934 17.5145L83.397 17.5217Z" fill="#333333"/>
<path d="M96.2879 18.6337C99.1041 18.6337 100.512 20.047 100.512 22.8736C100.51 23.3054 100.482 23.7367 100.428 24.1649H93.4893C93.4893 26.2167 94.6627 27.2438 97.0095 27.2462C98.0173 27.2604 99.022 27.1312 99.9947 26.8624V28.2972C98.961 28.573 97.8949 28.7021 96.8265 28.681C93.4401 28.681 91.7469 26.9676 91.7469 23.5408C91.7516 20.2694 93.2652 18.6337 96.2879 18.6337ZM93.4893 22.6906H98.8225C98.7826 20.9306 97.9377 20.0506 96.2879 20.0506C94.5349 20.0506 93.602 20.9306 93.4893 22.6906Z" fill="#333333"/>
<path d="M103.026 19.0462C104.36 18.7695 105.719 18.6312 107.081 18.6337C110.427 18.6337 112.101 20.2251 112.101 23.408C112.101 26.9233 110.418 28.681 107.053 28.681C106.265 28.6805 105.485 28.517 104.761 28.2003V32.3147H103.026V19.0462ZM104.761 26.6328C105.472 26.9835 106.253 27.1604 107.042 27.1493C109.279 27.1493 110.396 25.8962 110.393 23.3901C110.393 21.202 109.282 20.108 107.06 20.108C106.287 20.0967 105.516 20.1737 104.761 20.3375V26.6328Z" fill="#333333"/>
<path d="M114.642 28.681V18.6373H116.849L120.179 26.6005L123.418 18.6301H125.53V28.6738H123.981V20.9975L120.813 28.681H119.44L116.191 20.9975V28.681H114.642Z" fill="#333333"/>
<path d="M132.606 18.6337C135.408 18.6337 136.81 20.047 136.812 22.8736C136.81 23.3054 136.782 23.7367 136.728 24.1649H129.807C129.807 26.2167 130.981 27.2438 133.327 27.2462C134.335 27.2604 135.34 27.1312 136.313 26.8624V28.2972C135.279 28.573 134.213 28.7021 133.144 28.681C129.758 28.681 128.065 26.9676 128.065 23.5408C128.069 20.2694 129.583 18.6337 132.606 18.6337ZM129.807 22.6906H135.14C135.103 20.9306 134.258 20.0506 132.606 20.0506C130.853 20.0506 129.92 20.9306 129.807 22.6906Z" fill="#333333"/>
<path d="M139.34 19.0462C140.675 18.7698 142.033 18.6316 143.395 18.6337C146.746 18.6337 148.421 20.2251 148.419 23.408C148.419 26.9233 146.735 28.681 143.367 28.681C142.58 28.6808 141.802 28.5173 141.079 28.2003V32.3147H139.34V19.0462ZM141.079 26.6328C141.789 26.9843 142.57 27.1612 143.36 27.1493C145.592 27.1493 146.709 25.8962 146.711 23.3901C146.711 21.202 145.6 20.108 143.378 20.108C142.605 20.0965 141.834 20.1735 141.079 20.3375V26.6328Z" fill="#333333"/>
<path d="M152.227 26.909V28.681H150.488V26.909H152.227Z" fill="#00703B"/>
<path d="M154.952 28.681V15H166.079V28.681H164.34V16.4348H156.691V28.681H154.952Z" fill="#333333"/>
<path d="M168.804 23.6591C168.804 20.2443 170.431 18.538 173.687 18.5404C176.942 18.5428 178.569 20.249 178.569 23.6591C178.569 27.0716 176.942 28.7766 173.687 28.7743C170.431 28.7719 168.804 27.0668 168.804 23.6591ZM173.687 27.3394C175.785 27.3394 176.832 26.0995 176.83 23.6197C176.83 21.1877 175.782 19.9728 173.687 19.9752C171.591 19.9776 170.543 21.1924 170.543 23.6197C170.543 26.0995 171.591 27.3394 173.687 27.3394Z" fill="#333333"/>
<path d="M181.107 19.0462C182.442 18.7698 183.8 18.6316 185.162 18.6337C188.509 18.6337 190.183 20.2251 190.186 23.408C190.186 26.9233 188.502 28.681 185.134 28.681C184.347 28.6808 183.569 28.5173 182.846 28.2003V32.3147H181.107V19.0462ZM182.846 26.6328C183.556 26.9843 184.338 27.1612 185.127 27.1493C187.359 27.1493 188.476 25.8962 188.478 23.3901C188.478 21.202 187.367 20.108 185.145 20.108C184.372 20.0965 183.601 20.1735 182.846 20.3375V26.6328Z" fill="#333333"/>
<path d="M200 18.6337V20.0685H196.529V28.6774H194.79V20.0685H191.316V18.6337H200Z" fill="#333333"/>
<path d="M78.323 46.5963H83.3676V38.9413H80.2314C80.2314 43.182 79.5953 45.7337 78.323 46.5963ZM75 50.1867V46.5963H76.2278C78.0739 46.5963 78.997 44.0446 78.997 38.9413V37.9251H84.602V46.5963H85.8365V50.1867H84.602V47.6125H76.2278V50.1867H75Z" fill="#333333"/>
<path d="M87.0109 44.0559C87.0109 41.6398 88.1675 40.4317 90.4807 40.4317C92.7939 40.4317 93.9505 41.6398 93.9505 44.0559C93.9505 46.4721 92.7939 47.6802 90.4807 47.6802C88.1764 47.6802 87.0198 46.4721 87.0109 44.0559ZM88.2453 44.0288C88.2453 45.7857 88.9905 46.6641 90.4807 46.6641C91.9709 46.6641 92.7161 45.7857 92.7161 44.0288C92.7161 42.3082 91.9709 41.4478 90.4807 41.4478C88.9905 41.4478 88.2453 42.3082 88.2453 44.0288Z" fill="#333333"/>
<path d="M100.89 47.4092C100.312 47.5447 99.6891 47.6125 99.0218 47.6125C96.5306 47.6125 95.2851 46.3818 95.2851 43.9205C95.2851 41.6398 96.5306 40.4994 99.0218 40.4994C99.6891 40.4994 100.312 40.5671 100.89 40.7026V41.7188C100.312 41.5833 99.6668 41.5156 98.9551 41.5156C97.3314 41.5156 96.5195 42.3172 96.5195 43.9205C96.5195 45.7044 97.3314 46.5963 98.9551 46.5963C99.6668 46.5963 100.312 46.5286 100.89 46.3931V47.4092Z" fill="#333333"/>
<path d="M107.236 47.6125L106.255 45.946C105.597 44.8305 104.96 44.2727 104.347 44.2727V43.4395C105.058 43.4395 105.588 42.9495 105.935 41.9694C106.286 40.9894 106.88 40.4994 107.716 40.4994H108.43V41.5833H107.903C107.423 41.5833 107.069 41.9152 106.842 42.5791C106.615 43.2385 106.224 43.6788 105.668 43.9001C106.193 43.995 106.822 44.6363 107.556 45.824L108.664 47.6125H107.236ZM103.699 40.4994V47.6125H102.465V40.4994H103.699Z" fill="#333333"/>
<path d="M109.498 45.465C109.498 44.0063 110.445 43.2769 112.341 43.2769C112.95 43.2769 113.559 43.3221 114.169 43.4124V42.7417C114.169 41.9243 113.539 41.5156 112.28 41.5156C111.56 41.5156 110.821 41.6285 110.065 41.8543V40.8381C110.821 40.6123 111.56 40.4994 112.28 40.4994C114.362 40.4994 115.403 41.2355 115.403 42.7078V47.6125H114.709L114.282 46.9079C113.584 47.3776 112.823 47.6125 112 47.6125C110.332 47.6125 109.498 46.8967 109.498 45.465ZM112.341 44.293C111.268 44.293 110.732 44.6769 110.732 45.4447C110.732 46.2124 111.155 46.5963 112 46.5963C112.854 46.5963 113.577 46.366 114.169 45.9053V44.4285C113.559 44.3382 112.95 44.293 112.341 44.293Z" fill="#333333"/>
<path d="M120.415 44.0559C120.415 41.6398 121.571 40.4317 123.884 40.4317C126.198 40.4317 127.354 41.6398 127.354 44.0559C127.354 46.4721 126.198 47.6802 123.884 47.6802C121.58 47.6802 120.423 46.4721 120.415 44.0559ZM121.649 44.0288C121.649 45.7857 122.394 46.6641 123.884 46.6641C125.375 46.6641 126.12 45.7857 126.12 44.0288C126.12 42.3082 125.375 41.4478 123.884 41.4478C122.394 41.4478 121.649 42.3082 121.649 44.0288Z" fill="#333333"/>
<path d="M135.802 44.0898C135.802 46.4834 134.65 47.6802 132.345 47.6802C130.019 47.6802 128.855 46.4834 128.855 44.0898V41.8881C128.855 39.2461 130.065 37.9251 132.485 37.9251C133.784 37.9251 134.814 37.679 135.575 37.1867V38.291C134.894 38.7245 133.858 38.9413 132.465 38.9413C130.904 38.9413 130.123 39.901 130.123 41.8204C130.697 40.9397 131.46 40.4994 132.412 40.4994C134.672 40.4994 135.802 41.6465 135.802 43.9408V44.0898ZM132.345 46.6641C133.822 46.6641 134.561 45.806 134.561 44.0898C134.561 42.4007 133.844 41.5562 132.412 41.5562C130.886 41.5562 130.123 42.4007 130.123 44.0898C130.123 45.806 130.864 46.6641 132.345 46.6641Z" fill="#333333"/>
<path d="M140.346 40.4994V46.576H142.334C143.215 46.576 143.656 46.1944 143.656 45.4311C143.656 44.8124 143.251 44.503 142.441 44.503H141.253V43.4869H142.508C144.105 43.4869 144.903 44.1553 144.903 45.4921C144.903 46.9057 144.085 47.6125 142.448 47.6125H139.111V41.5156H136.549V40.4994H140.346Z" fill="#333333"/>
<path d="M150.976 47.6125V41.5359H148.587C147.973 41.5359 147.666 41.8023 147.666 42.3353C147.666 42.9675 148.378 43.4304 149.801 43.724V44.6114L147.299 47.6125H145.737L148.447 44.4353C147.05 43.9972 146.351 43.3017 146.351 42.3488C146.351 41.1159 147.103 40.4994 148.607 40.4994H152.21V47.6125H150.976Z" fill="#333333"/>
<path d="M157.942 46.5963C158.636 46.5963 158.983 46.235 158.983 45.5124C158.983 44.835 158.442 44.4963 157.361 44.4963H156.828V43.6766C158.207 43.5185 158.896 43.0466 158.896 42.2607C158.896 41.7639 158.611 41.5156 158.042 41.5156H155.453V46.5963H157.942ZM154.218 47.6125V40.4994H158.155C159.526 40.4994 160.211 41.0933 160.211 42.2811C160.211 43.0172 159.775 43.5637 158.903 43.9205C159.855 44.1598 160.331 44.6837 160.331 45.4921C160.331 46.9057 159.559 47.6125 158.015 47.6125H154.218Z" fill="#333333"/>
<path d="M160.998 46.5963C162.052 46.5963 162.579 45.9866 162.579 44.7672V40.4994H167.918V47.6125H166.683V41.5156H163.814V44.7672C163.814 46.6641 162.875 47.6125 160.998 47.6125V46.5963Z" fill="#333333"/>
<path d="M172.815 40.4994C174.808 40.4994 175.805 41.4997 175.805 43.5004C175.805 43.785 175.785 44.0898 175.745 44.415H170.827C170.827 45.8692 171.663 46.5963 173.336 46.5963C174.132 46.5963 174.839 46.506 175.458 46.3254V47.3415C174.839 47.5222 174.088 47.6125 173.202 47.6125C170.796 47.6125 169.592 46.3999 169.592 43.9746C169.592 41.6578 170.667 40.4994 172.815 40.4994ZM170.827 43.3717H174.617C174.59 42.1252 173.99 41.502 172.815 41.502C171.57 41.502 170.907 42.1252 170.827 43.3717Z" fill="#333333"/>
<path d="M177.466 47.6125V40.4994H178.701V43.4801H182.404V40.4994H183.639V47.6125H182.404V44.4963H178.701V47.6125H177.466Z" fill="#333333"/>
<path d="M190.652 47.6125V42.1117L186.881 47.6125H185.647V40.4994H186.815V46.0002L190.585 40.4994H191.819V47.6125H190.652Z" fill="#333333"/>
<path d="M198.832 47.6125V42.1117L195.062 47.6125H193.828V40.4994H194.995V46.0002L198.766 40.4994H200V47.6125H198.832ZM195.149 37.9251H196.05C196.05 38.6026 196.339 38.9413 196.917 38.9413C197.495 38.9413 197.785 38.6026 197.785 37.9251H198.685C198.685 39.0994 198.096 39.6865 196.917 39.6865C195.738 39.6865 195.149 39.0994 195.149 37.9251Z" fill="#333333"/>
</g>
<defs>
<clipPath id="clip0">
<rect width="200" height="52.9412" fill="white"/>
</clipPath>
</defs>
</svg>
