<svg width="20" height="20" viewBox="0 0 20 20" fill="none" xmlns="http://www.w3.org/2000/svg">
<path d="M9.99967 12.6666C11.4724 12.6666 12.6663 11.4727 12.6663 9.99998C12.6663 8.52722 11.4724 7.33331 9.99967 7.33331C8.52691 7.33331 7.33301 8.52722 7.33301 9.99998C7.33301 11.4727 8.52691 12.6666 9.99967 12.6666Z" fill="#8C8C8C"/>
<path d="M7.50033 1.66666L5.97533 3.33332H3.33366C2.41699 3.33332 1.66699 4.08332 1.66699 4.99999V15C1.66699 15.9167 2.41699 16.6667 3.33366 16.6667H16.667C17.5837 16.6667 18.3337 15.9167 18.3337 15V4.99999C18.3337 4.08332 17.5837 3.33332 16.667 3.33332H14.0253L12.5003 1.66666H7.50033ZM10.0003 14.1667C7.70033 14.1667 5.83366 12.3 5.83366 9.99999C5.83366 7.69999 7.70033 5.83332 10.0003 5.83332C12.3003 5.83332 14.167 7.69999 14.167 9.99999C14.167 12.3 12.3003 14.1667 10.0003 14.1667Z" fill="#8C8C8C"/>
</svg>
