<svg width="35" height="34" viewBox="0 0 35 34" fill="none" xmlns="http://www.w3.org/2000/svg">
<path d="M19.1666 8.66683H15.8333V15.3335H9.16665V18.6668H15.8333V25.3335H19.1666V18.6668H25.8333V15.3335H19.1666V8.66683ZM17.5 0.333496C8.31665 0.333496 0.833313 7.81683 0.833313 17.0002C0.833313 26.1835 8.31665 33.6668 17.5 33.6668C26.6833 33.6668 34.1666 26.1835 34.1666 17.0002C34.1666 7.81683 26.6833 0.333496 17.5 0.333496ZM17.5 30.3335C10.15 30.3335 4.16665 24.3502 4.16665 17.0002C4.16665 9.65016 10.15 3.66683 17.5 3.66683C24.85 3.66683 30.8333 9.65016 30.8333 17.0002C30.8333 24.3502 24.85 30.3335 17.5 30.3335Z" fill="#00703B"/>
</svg>
